<svg width="155" height="167" viewBox="0 0 155 167" fill="none" xmlns="http://www.w3.org/2000/svg">
<path d="M11.7564 56.1862C12.0095 55.7478 12.2626 55.3094 12.5335 54.8402C12.9005 54.2045 13.2701 53.5644 13.695 52.9095C13.8848 52.5807 14.1104 52.2608 14.3228 51.9333C15.9172 49.4488 17.7204 47.1047 19.7128 44.9264C20.0624 44.5436 20.4032 44.1558 20.7703 43.7832C21.3014 43.2481 21.8669 42.7445 22.435 42.2365C23.003 41.7285 23.5872 41.2533 24.1765 40.7693C24.6976 40.3628 25.2249 39.9658 25.776 39.5883C26.0387 39.4068 26.2713 39.1962 26.5402 39.0241L28.3982 35.806C30.2051 32.7573 34.9997 24.3719 38.8775 17.6552L42.9529 10.5966C45.9564 5.68604 50.753 2.13703 56.3272 0.700826C61.9014 -0.735374 67.8158 0.0539698 72.8183 2.90177C76.0624 4.57781 78.8574 7.00735 80.9687 9.9866L81.0038 10.0068C81.3272 10.4943 81.6202 11.0012 81.8811 11.5247C82.0124 11.7934 82.1373 12.0935 82.2347 12.3602C82.4521 12.8745 82.6401 13.4007 82.7979 13.9363C82.9693 14.53 83.1051 15.1334 83.2042 15.7434C83.2256 15.8785 83.2691 15.9854 83.2861 16.118C83.5602 16.0483 83.8692 16.0396 84.1426 15.9812C85.0447 15.7801 85.9579 15.632 86.8773 15.5375C87.3585 15.4938 87.8515 15.4803 88.3401 15.4642C89.245 15.4326 90.151 15.4559 91.0531 15.5341C91.5791 15.5747 92.1001 15.6241 92.6328 15.7037C93.636 15.869 94.6283 16.0944 95.6043 16.3788C96.1035 16.5267 96.5609 16.6154 97.0449 16.7896C98.6071 17.3182 100.116 17.9935 101.551 18.8065V18.8065C102.526 19.4463 103.451 20.1584 104.319 20.9368C104.651 21.2221 104.961 21.5356 105.278 21.8472C105.741 22.3014 106.198 22.8164 106.664 23.3661C107.218 24.0209 107.733 24.7085 108.205 25.425C108.544 25.9308 108.867 26.4559 109.177 27.0212C109.488 27.5864 109.743 28.0667 109.965 28.6039C110.336 29.4591 110.649 30.3387 110.9 31.2366C110.994 31.5598 111.128 31.8536 111.206 32.1849C111.479 33.3378 111.656 34.5114 111.735 35.6936C111.86 35.6898 112.003 35.7143 112.133 35.713C112.726 35.6987 113.378 35.7537 114.028 35.8018C114.441 35.8356 114.846 35.8531 115.263 35.9304C115.947 36.0213 116.669 36.1576 117.369 36.3334C117.798 36.4295 118.216 36.4955 118.656 36.6148C119.444 36.83 120.262 37.1331 121.101 37.442C121.494 37.5926 121.873 37.6948 122.278 37.8642C123.57 38.4071 124.826 39.031 126.04 39.7321L126.062 39.7448C126.95 40.3275 127.793 40.9763 128.583 41.6856C128.917 41.9779 129.227 42.2913 129.544 42.6029C129.861 42.9145 130.222 43.3331 130.569 43.7327C131.215 44.4794 131.804 45.2729 132.332 46.1066C132.567 46.47 132.799 46.8378 133.015 47.2318C133.322 47.7945 133.596 48.3622 133.849 48.9579C134.101 49.5537 134.262 50.085 134.453 50.6749C134.645 51.2647 134.82 51.7107 134.94 52.2714C135.188 53.3806 135.34 54.5089 135.395 55.6441C135.611 55.6752 135.839 55.8069 136.075 55.855C136.988 56.0749 137.888 56.3485 138.77 56.6745C139.187 56.8221 139.599 56.9489 140.02 57.1215C141.399 57.6859 142.74 58.3406 144.032 59.0816L144.068 59.1018C146.507 60.6328 148.62 62.6315 150.283 64.9827C151.947 67.3339 153.128 69.9911 153.76 72.8012C154.392 75.6113 154.461 78.5185 153.964 81.3555C153.466 84.1924 152.412 86.9029 150.863 89.3306L142.834 103.237C142.289 104.167 141.673 105.052 140.99 105.885C140.944 105.964 140.896 106.047 140.85 106.126L140.483 106.762C128.418 127.943 111.893 156.96 84.3224 164.436C69.3671 168.47 53.031 165.468 35.7571 155.495C-6.2353 131.251 -5.22579 90.3994 8.41829 62.6767C8.772 61.7648 9.19277 60.8803 9.67714 60.0306C10.0584 59.3095 10.4833 58.5026 10.943 57.6457C11.1982 57.1733 11.4722 56.6885 11.7564 56.1862ZM51.7352 15.6554L47.6675 22.7009C45.7134 26.0855 43.5162 29.8911 41.5925 33.2231L40.904 34.4156C48.6202 34.4126 56.1896 36.5245 62.7897 40.5217C64.7514 37.2759 67.0283 33.4638 69.2229 29.6627C70.2755 27.874 71.2011 26.0136 71.993 24.0952L72.3262 23.1535C72.8454 21.7865 73.1674 20.3525 73.2827 18.8948C73.2898 18.7001 73.2756 18.5224 73.2707 18.3384C73.2659 18.1543 73.2439 17.8786 73.2204 17.6662C73.1155 16.8043 72.8117 15.9786 72.3332 15.2542C72.2889 15.1829 72.2408 15.1142 72.189 15.0482C72.0374 14.8319 71.8708 14.6263 71.6907 14.4331C71.425 14.153 71.1406 13.8912 70.8395 13.6494L70.6468 13.4972C69.729 12.8245 68.7697 12.2101 67.7747 11.6578C65.0944 10.1582 61.9432 9.73688 58.9631 10.4796C55.983 11.2224 53.3982 13.0733 51.7352 15.6554V15.6554ZM112.715 82.9492L121.992 66.8809C123.365 64.6175 124.368 62.1495 124.962 59.57L125 59.5042C125.172 58.6483 125.261 57.778 125.268 56.9051C125.267 56.5758 125.248 56.2469 125.211 55.9197C125.187 55.5235 125.139 55.1291 125.069 54.7385C124.996 54.369 124.909 54.0031 124.811 53.6661C124.713 53.3291 124.644 53.1957 124.554 52.968C124.126 51.8945 123.508 50.9075 122.728 50.055C122.577 49.8917 122.424 49.7215 122.262 49.5757C122.101 49.4299 121.936 49.2703 121.774 49.1359C121.464 48.8721 121.139 48.6276 120.799 48.4038C117.68 46.317 113.889 45.4828 110.182 46.0677C109.323 48.7397 108.186 51.314 106.788 53.7479L96.5723 71.4427C95.4354 73.3788 94.1653 75.2336 92.7712 76.9937C91.5186 78.9702 91.0261 81.3344 91.3853 83.6467C92.4073 86.2673 94.415 88.3834 96.9784 89.5415C99.9455 90.6829 103.239 90.6344 106.171 89.4061C109.103 88.1778 111.448 85.8646 112.715 82.9492V82.9492ZM87.5202 66.7601C87.6012 66.6198 87.6695 66.5014 87.7556 66.3524L97.9717 48.6575C99.4613 46.1811 100.555 43.4872 101.213 40.6734C101.303 40.2455 101.349 39.8514 101.4 39.4485C101.493 38.8517 101.55 38.25 101.57 37.6464C101.577 37.1887 101.574 36.7372 101.539 36.3132C101.503 35.8892 101.427 35.4945 101.377 35.115C101.308 34.667 101.215 34.2231 101.098 33.7851C101.048 33.6096 100.971 33.4599 100.91 33.2907C100.591 32.394 100.157 31.5424 99.62 30.7569C99.5239 30.6196 99.4361 30.4578 99.3349 30.3292C99.0952 30.0155 98.8465 29.7374 98.5997 29.4663C98.4053 29.2664 98.2134 29.0621 98.0202 28.8804C97.827 28.6987 97.6425 28.522 97.4329 28.3484C97.035 28.0252 96.6295 27.715 96.2563 27.4704C95.3343 26.9355 94.3608 26.4948 93.3505 26.1551C91.9844 25.7072 90.5535 25.4895 89.1161 25.5108C88.7983 25.5144 88.4563 25.4689 88.151 25.4915C85.7016 25.7015 83.3503 26.5513 81.3326 27.9559C80.3863 30.295 79.2723 32.5628 77.9995 34.7415C75.7467 38.6435 73.4141 42.552 71.4094 45.8724C81.2493 52.7343 86.5454 59.6093 87.5202 66.7601V66.7601ZM142.097 84.2637C142.983 82.9722 143.602 81.5166 143.918 79.9824C144.234 78.4482 144.241 76.8663 143.937 75.3296C143.633 73.7929 143.026 72.3324 142.15 71.0338C141.274 69.7351 140.148 68.6245 138.837 67.7672C137.558 67.0199 136.202 66.4152 134.792 65.964C134.717 65.921 134.634 65.8729 134.537 65.8693C134.223 65.7756 133.953 65.8071 133.646 65.741C132.87 67.8899 131.905 69.9656 130.761 71.9434L121.484 88.0117C119.434 91.5986 116.556 94.6431 113.09 96.891C114.544 99.1476 116.561 100.986 118.943 102.223C121.54 103.423 124.476 103.675 127.239 102.934C130.002 102.194 132.419 100.508 134.068 98.1706L142.097 84.2637ZM17.804 66.488L17.5991 66.9542C-6.75916 116.059 32.6693 142.021 40.8196 146.727C55.8839 155.424 69.2416 158.015 81.6595 154.651C100.741 149.475 114.433 130.771 124.893 113.404C121.075 113.576 117.278 112.744 113.881 110.992C109.401 108.662 105.761 104.989 103.473 100.487C99.4935 101.018 95.4491 100.258 91.9334 98.3202C89.483 97.1051 87.3041 95.4062 85.5282 93.326C83.7523 91.2457 82.4163 88.8273 81.6007 86.2166C81.4525 85.5761 81.343 84.9272 81.2728 84.2736C78.2036 87.2594 74.3716 89.3427 70.1969 90.2951C79.4998 100.658 85.9187 113.281 88.8115 126.904C88.953 127.553 88.9652 128.225 88.8472 128.879C88.7293 129.533 88.4836 130.158 88.1242 130.718C87.7648 131.277 87.2987 131.761 86.7526 132.14C86.2064 132.519 85.5909 132.787 84.9411 132.929C84.2914 133.07 83.6201 133.083 82.9656 132.965C82.3112 132.847 81.6864 132.601 81.1269 132.242C80.5674 131.882 80.0841 131.416 79.7047 130.87C79.3254 130.324 79.0573 129.708 78.9158 129.058C76.8967 119.625 72.9566 110.708 67.3409 102.864C61.7252 95.0192 54.5542 88.4154 46.2748 83.4634C45.5558 83.0483 44.9157 82.6787 44.3589 82.3573L36.2741 96.3606C35.6027 97.5234 34.497 98.3718 33.2001 98.7193C31.9032 99.0668 30.5213 98.8849 29.3586 98.2136C28.1958 97.5422 27.3473 96.4365 26.9998 95.1396C26.6523 93.8427 26.8342 92.4609 27.5056 91.2981L36.0359 76.5231C37.1906 74.5405 38.9918 73.015 41.1376 72.2025C42.1285 71.5828 43.3073 71.3352 44.4637 71.5039C46.356 71.4235 48.2323 71.8806 49.8757 72.8222L61.6605 79.6262C64.1 80.7123 66.8485 80.8857 69.4052 80.115C71.9618 79.3442 74.1565 77.6805 75.5892 75.4271C77.9939 71.262 82.4691 63.5107 58.838 49.8672C55.6945 47.6579 52.1367 46.1073 48.3784 45.3088C44.6201 44.5102 40.7391 44.4802 36.969 45.2205C34.9596 45.837 33.0665 46.7826 31.3667 48.0187C31.0259 48.2546 30.6664 48.4621 30.34 48.7237C29.8309 49.1196 29.3679 49.5771 28.8881 50.0133C27.989 50.8366 27.1397 51.7126 26.3446 52.6368C26.1811 52.8288 25.9994 53.022 25.8504 53.1991C25.3245 53.8366 24.8337 54.4944 24.3516 55.1572C24.2301 55.3677 24.0503 55.5678 23.9119 55.7568C23.4531 56.4097 23.0188 57.0709 22.6008 57.7239L22.1771 58.3971C21.8126 59.0284 21.4269 59.6358 21.0776 60.2408C20.8903 60.5653 20.708 60.8809 20.5258 61.1966C20.2549 61.6657 19.9841 62.1348 19.7547 62.5928C19.3421 63.3074 18.9854 64.0368 18.6446 64.6877L18.5383 64.8718C18.2495 65.3894 18.0039 65.93 17.804 66.488V66.488Z" fill="rgb(204, 200, 200)"/>
</svg>
